<?xml version="1.0" encoding="iso-8859-1"?>
<!-- Generator: Adobe Illustrator 19.0.0, SVG Export Plug-In . SVG Version: 6.00 Build 0)  -->
<svg version="1.1" id="Layer_1" xmlns="http://www.w3.org/2000/svg" xmlns:xlink="http://www.w3.org/1999/xlink" x="0px" y="0px"
	 viewBox="0 0 496 496" style="enable-background:new 0 0 496 496;" xml:space="preserve">
<path style="fill:#C93131;" d="M16,217.6l54.4,167.2c0,44.8,36.8,80.8,81.6,80.8h191.2c44.8,0,81.6-36,81.6-80.8L480,217.6H16z"/>
<polyline style="fill:#AD0E0E;" points="424.8,385.6 480,217.6 16,217.6 "/>
<path style="fill:#F15249;" d="M496,227.2c0,17.6-15.2,30.4-36,30.4H36c-20.8,0-36-12.8-36-30.4v-18.4c0-18.4,15.2-31.2,36-31.2
	h423.2c20.8,0,36,12.8,36,31.2v18.4H496z"/>
<g>
	<path style="fill:#FFFFFF;" d="M168,385.6c0,8.8-7.2,16-16,16l0,0c-8.8,0-16-7.2-16-16v-88c0-8.8,7.2-16,16-16l0,0
		c8.8,0,16,7.2,16,16V385.6z"/>
	<path style="fill:#FFFFFF;" d="M232,385.6c0,8.8-7.2,16-16,16l0,0c-8.8,0-16-7.2-16-16v-88c0-8.8,7.2-16,16-16l0,0
		c8.8,0,16,7.2,16,16V385.6z"/>
	<path style="fill:#FFFFFF;" d="M296,385.6c0,8.8-7.2,16-16,16l0,0c-8.8,0-16-7.2-16-16v-88c0-8.8,7.2-16,16-16l0,0
		c8.8,0,16,7.2,16,16V385.6z"/>
	<path style="fill:#FFFFFF;" d="M360,385.6c0,8.8-7.2,16-16,16l0,0c-8.8,0-16-7.2-16-16v-88c0-8.8,7.2-16,16-16l0,0
		c8.8,0,16,7.2,16,16V385.6z"/>
</g>
<g>
	<path style="fill:#C93131;" d="M492,240.8l-64.8-63.2H376l-19.2,17.6l64,62.4H460C474.4,257.6,485.6,251.2,492,240.8z"/>
	<polygon style="fill:#C93131;" points="173.6,177.6 122.4,177.6 102.4,195.2 166.4,257.6 256.8,257.6 	"/>
</g>
<path style="fill:#5E6664;" d="M138.4,196.8c-9.6,9.6-24,9.6-33.6,0l0,0c-9.6-9.6-9.6-24,0-33.6L230.4,37.6c9.6-9.6,24-9.6,33.6,0
	l0,0c9.6,9.6,9.6,24,0,33.6L138.4,196.8z"/>
<path style="fill:#2F423F;" d="M391.2,163.2c9.6,9.6,9.6,24,0,33.6l0,0c-9.6,9.6-24,9.6-33.6,0L232,71.2c-9.6-9.6-9.6-24,0-33.6l0,0
	c9.6-9.6,24-9.6,33.6,0L391.2,163.2z"/>
<circle style="fill:#FFFFFF;" cx="248" cy="55.2" r="7.2"/>
<g>
</g>
<g>
</g>
<g>
</g>
<g>
</g>
<g>
</g>
<g>
</g>
<g>
</g>
<g>
</g>
<g>
</g>
<g>
</g>
<g>
</g>
<g>
</g>
<g>
</g>
<g>
</g>
<g>
</g>
</svg>
